HIERARCHY
ROOT hip
{
  OFFSET 0 0 0
  CHANNELS 6 Xposition Yposition Zposition Zrotation Yrotation Xrotation
  JOINT abdomen
  {
    OFFSET 0 20.6881 -0.73152
    CHANNELS 3 Zrotation Xrotation Yrotation
    JOINT chest
    {
      OFFSET 0 11.7043 -0.48768
      CHANNELS 3 Zrotation Xrotation Yrotation
      JOINT neck
      {
        OFFSET 0 22.1894 -2.19456
        CHANNELS 3 Zrotation Xrotation Yrotation
        JOINT head
        {
          OFFSET -0.24384 7.07133 1.2192
          CHANNELS 3 Zrotation Xrotation Yrotation
          JOINT leftEye
          {
            OFFSET 4.14528 8.04674 8.04672
            CHANNELS 3 Zrotation Xrotation Yrotation
            End Site
            {
              OFFSET 1 0 0
            }
          }
          JOINT rightEye
          {
            OFFSET -3.6576 8.04674 8.04672
            CHANNELS 3 Zrotation Xrotation Yrotation
            End Site
            {
              OFFSET 1 0 0
            }
          }
        }
      }
      JOINT rCollar
      {
        OFFSET -2.68224 19.2634 -4.8768
        CHANNELS 3 Zrotation Xrotation Yrotation
        JOINT rShldr
        {
          OFFSET -8.77824 -1.95073 1.46304
          CHANNELS 3 Zrotation Xrotation Yrotation
          JOINT rForeArm
          {
            OFFSET -28.1742 -1.7115 0.48768
            CHANNELS 3 Zrotation Xrotation Yrotation
            JOINT rHand
            {
              OFFSET -22.5879 0.773209 7.07136
              CHANNELS 3 Zrotation Xrotation Yrotation
              JOINT rThumb1
              {
                OFFSET -1.2192 -0.487915 3.41376
                CHANNELS 3 Zrotation Xrotation Yrotation
                JOINT rThumb2
                {
                  OFFSET -3.37035 -0.52449 3.41376
                  CHANNELS 3 Zrotation Xrotation Yrotation
                  End Site
                  {
                    OFFSET -1.78271 -1.18214 1.43049
                  }
                }
              }
              JOINT rIndex1
              {
                OFFSET -7.75947 0.938293 5.60832
                CHANNELS 3 Zrotation Xrotation Yrotation
                JOINT rIndex2
                {
                  OFFSET -2.54057 -0.884171 1.56538
                  CHANNELS 3 Zrotation Xrotation Yrotation
                  End Site
                  {
                    OFFSET -1.62519 -0.234802 1.16502
                  }
                }
              }
              JOINT rMid1
              {
                OFFSET -8.24714 1.18213 3.41376
                CHANNELS 3 Zrotation Xrotation Yrotation
                JOINT rMid2
                {
                  OFFSET -3.10165 -0.590103 1.0647
                  CHANNELS 3 Zrotation Xrotation Yrotation
                  End Site
                  {
                    OFFSET -2.48547 -0.328903 0.83742
                  }
                }
              }
              JOINT rRing1
              {
                OFFSET -8.82822 0.546677 1.51678
                CHANNELS 3 Zrotation Xrotation Yrotation
                JOINT rRing2
                {
                  OFFSET -2.60934 -0.819778 -0.0198488
                  CHANNELS 3 Zrotation Xrotation Yrotation
                  End Site
                  {
                    OFFSET -2.33842 -0.294052 0.168128
                  }
                }
              }
              JOINT rPinky1
              {
                OFFSET -8.27202 -0.0477905 -0.4584
                CHANNELS 3 Zrotation Xrotation Yrotation
                JOINT rPinky2
                {
                  OFFSET -1.82734 -0.647385 -0.700984
                  CHANNELS 3 Zrotation Xrotation Yrotation
                  End Site
                  {
                    OFFSET -1.69225 -0.51767 -0.607171
                  }
                }
              }
            }
          }
        }
      }
      JOINT lCollar
      {
        OFFSET 2.68224 19.2634 -4.8768
        CHANNELS 3 Zrotation Xrotation Yrotation
        JOINT lShldr
        {
          OFFSET 8.77824 -1.95073 1.46304
          CHANNELS 3 Zrotation Xrotation Yrotation
          JOINT lForeArm
          {
            OFFSET 28.1742 -1.7115 0.48768
            CHANNELS 3 Zrotation Xrotation Yrotation
            JOINT lHand
            {
              OFFSET 22.5879 0.773209 7.07136
              CHANNELS 3 Zrotation Xrotation Yrotation
              JOINT lThumb1
              {
                OFFSET 1.2192 -0.487915 3.41376
                CHANNELS 3 Zrotation Xrotation Yrotation
                JOINT lThumb2
                {
                  OFFSET 3.37035 -0.52449 3.41376
                  CHANNELS 3 Zrotation Xrotation Yrotation
                  End Site
                  {
                    OFFSET 1.78271 -1.18214 1.43049
                  }
                }
              }
              JOINT lIndex1
              {
                OFFSET 7.75947 0.938293 5.60832
                CHANNELS 3 Zrotation Xrotation Yrotation
                JOINT lIndex2
                {
                  OFFSET 2.54057 -0.884171 1.56538
                  CHANNELS 3 Zrotation Xrotation Yrotation
                  End Site
                  {
                    OFFSET 1.62519 -0.234802 1.16502
                  }
                }
              }
              JOINT lMid1
              {
                OFFSET 8.24714 1.18213 3.41376
                CHANNELS 3 Zrotation Xrotation Yrotation
                JOINT lMid2
                {
                  OFFSET 3.10165 -0.590103 1.0647
                  CHANNELS 3 Zrotation Xrotation Yrotation
                  End Site
                  {
                    OFFSET 2.48547 -0.328903 0.83742
                  }
                }
              }
              JOINT lRing1
              {
                OFFSET 8.82822 0.546677 1.51678
                CHANNELS 3 Zrotation Xrotation Yrotation
                JOINT lRing2
                {
                  OFFSET 2.60934 -0.819778 -0.0198488
                  CHANNELS 3 Zrotation Xrotation Yrotation
                  End Site
                  {
                    OFFSET 2.33842 -0.294052 0.168128
                  }
                }
              }
              JOINT lPinky1
              {
                OFFSET 8.27202 -0.0477905 -0.4584
                CHANNELS 3 Zrotation Xrotation Yrotation
                JOINT lPinky2
                {
                  OFFSET 1.82734 -0.647385 -0.700984
                  CHANNELS 3 Zrotation Xrotation Yrotation
                  End Site
                  {
                    OFFSET 1.69225 -0.51767 -0.607171
                  }
                }
              }
            }
          }
        }
      }
    }
  }
  JOINT rButtock
  {
    OFFSET -8.77824 4.35084 1.2192
    CHANNELS 3 Zrotation Xrotation Yrotation
    JOINT rThigh
    {
      OFFSET 0 -1.70687 -2.19456
      CHANNELS 3 Zrotation Xrotation Yrotation
      JOINT rShin
      {
        OFFSET 0 -36.8199 0.73152
        CHANNELS 3 Zrotation Xrotation Yrotation
        JOINT rFoot
        {
          OFFSET 0.73152 -45.1104 -5.12064
          CHANNELS 3 Zrotation Xrotation Yrotation
          End Site
          {
            OFFSET -1.1221 -3.69964 12.103
          }
        }
      }
    }
  }
  JOINT lButtock
  {
    OFFSET 8.77824 4.35084 1.2192
    CHANNELS 3 Zrotation Xrotation Yrotation
    JOINT lThigh
    {
      OFFSET 0 -1.70687 -2.19456
      CHANNELS 3 Zrotation Xrotation Yrotation
      JOINT lShin
      {
        OFFSET 0 -36.8199 0.73152
        CHANNELS 3 Zrotation Xrotation Yrotation
        JOINT lFoot
        {
          OFFSET -0.73152 -45.1104 -5.12064
          CHANNELS 3 Zrotation Xrotation Yrotation
          End Site
          {
            OFFSET 1.1221 -3.69964 12.103
          }
        }
      }
    }
  }
}
MOTION
Frames:	5
Frame Time:	0.00833333
41.806545 64.33042 -155.92007 -18.141975 46.500015 -17.79187 -3.228188 15.71394 5.7742596 3.0104709 -13.0769615 2.1320097 -9.162769 14.218242 -8.812749 13.096425 -31.24021 -13.400615 -0.058691125 0.07735846 -0.090920456 0.06765731 -0.047525488 -0.07503796 0.023462929 0.15110987 -0.05000566 23.896 7.241034 58.122887 -16.686655 -25.612818 51.869812 -2.4973607 1.893916 0.28474608 -0.0042310227 -0.079853915 0.071166284 -0.20000814 -0.06345288 0.08782952 -0.018459737 -0.08684949 -0.06967413 7.7851467 5.4912834 0.36936188 0.052785587 0.104067795 -0.13737783 2.8462684 1.0057931 0.18641527 -0.016347907 -0.012271228 0.13584815 10.276797 0.79094243 0.00759444 -0.0029221692 -0.08926967 0.07150283 2.222905 -0.7680526 -0.14955947 -0.00840906 -0.15202065 0.23740977 62.2806 71.25312 -118.149216 32.01577 -37.7182 -81.437225 -2.2186847 -19.302023 1.8847585 0.16164023 0.036959246 0.063890435 0.23120034 0.14010255 0.0012502638 0.10050219 0.23139107 0.11780034 -7.822979 5.5167174 -0.5248729 -0.07321945 0.10313044 0.08429439 -2.936686 0.92929333 -0.07970513 0.020487938 -0.09688402 0.076939896 -10.221403 0.50781304 -0.05823265 0.012137829 0.20996116 0.1400956 -2.1482916 -0.7077398 0.20845751 0.00996114 -0.034375582 0.06257993 -34.610638 -54.02669 -45.878624 -2.7927272 68.710495 11.504757 -0.58267444 21.480896 11.985181 0.10614518 -0.011502346 -0.15697181 23.703138 -51.7231 29.071325 5.7548137 88.43731 -4.1644807 7.554969 -19.984516 25.624712
41.41485 64.808525 -152.956 -23.744886 52.86038 -22.83728 -4.1671286 15.741711 6.4231195 2.1759539 -13.170595 2.3390515 -9.079386 14.15397 -8.777141 12.753117 -32.234528 -13.498174 -0.1288792 0.06859152 -0.093169086 -0.03173295 -0.04046063 -0.111766785 0.022337783 0.14909893 -0.0082861725 24.498766 4.2945085 55.533054 -18.708803 -22.025581 49.851494 0.7141883 0.75270545 2.4199166 0.012979206 -0.09975607 0.061351918 -0.19918826 0.019148285 0.09880829 -0.03461765 -0.034845185 -0.10350668 7.756975 5.4620314 0.34239602 0.0343091 0.031700164 -0.14289768 2.8323994 1.0234663 0.16293657 -0.030816512 -0.014478021 0.06462835 10.245687 0.7897274 -0.012729653 -0.052495833 -0.06341209 0.07888871 2.2507308 -0.6847719 -0.18567544 0.0032136654 -0.13755395 0.21916872 88.976585 59.3767 -166.51193 31.541237 -39.071053 -83.72216 1.5634886 -29.34369 5.262493 0.16398051 -0.06817182 0.14189792 0.26983425 0.056293935 0.023162756 0.12755582 0.22839539 0.098317 -7.793484 5.491863 -0.51747894 -0.07771832 0.14253354 0.03790321 -2.9367008 0.9177853 -0.12977463 0.01302817 -0.09342834 0.011323736 -10.24065 0.5397942 -0.07187421 0.040751375 0.17720099 0.103734225 -2.1461182 -0.6826657 0.22527723 0.059763033 -0.0302982 0.13646396 -36.04996 -55.6091 -48.856388 -1.4855042 69.11093 10.127872 -2.5600808 19.705236 8.12644 0.15338765 -0.035551574 -0.19311017 23.597065 -51.617302 29.284502 4.6354933 85.70784 -5.7182336 7.5868335 -18.977837 26.22244
41.622486 66.37771 -149.3077 -25.14471 55.571278 -24.325634 -4.4909215 15.368361 7.346263 1.0179594 -13.005938 2.5376375 -8.723921 14.485842 -8.718152 11.738777 -32.643253 -14.223351 -0.16964476 -0.008213983 -0.09576395 -0.15223868 -0.052129798 -0.11635979 0.017112931 0.104843535 0.027888844 28.57782 0.45808947 54.220028 -18.874956 -18.459606 47.89709 2.6338003 -2.462722 3.4517457 0.013073397 -0.09977537 0.057799578 -0.13082415 0.097079806 0.06388161 -0.031956904 0.004980629 -0.13058221 7.7536726 5.4426227 0.32011375 0.013339073 -0.05013847 -0.13290446 2.827773 1.0445347 0.119895786 -0.049704067 0.018691378 -0.030903583 10.20864 0.7747183 -0.039386187 -0.12061558 -0.034112815 0.079046816 2.2829676 -0.6063569 -0.19047159 0.022314666 -0.11542374 0.21942294 121.22196 67.10089 143.0418 30.23481 -39.514324 -84.44698 4.6818604 -35.263393 7.252245 0.11858079 -0.15165612 0.17153919 0.23442866 -0.028731305 0.033750087 0.1486948 0.23817998 0.059134606 -7.7429976 5.495328 -0.51568973 -0.09486053 0.18062091 -0.033086326 -2.9544468 0.92222583 -0.18868819 0.028278885 -0.10872613 -0.06760151 -10.250926 0.567585 -0.105239734 0.054842062 0.16003339 0.06128772 -2.1611722 -0.66195965 0.20826884 0.1307049 -0.036726523 0.1839846 -40.418877 -56.84437 -48.30471 -0.9591836 68.00249 7.754 -3.1748886 20.402567 5.850423 0.19951138 -0.015099496 -0.19034974 22.661818 -50.48525 29.556408 2.0738711 81.4432 -6.891464 7.749555 -17.770935 25.137571
41.532215 67.066475 -146.44461 -19.958675 54.269524 -21.05035 -3.5195096 14.389328 7.9091315 -0.0461717 -12.53768 2.536182 -8.084616 15.5133505 -8.474981 10.426294 -32.557796 -14.952896 -0.13194117 -0.10580498 -0.09766342 -0.2030441 -0.072645195 -0.11073412 0.0017786671 0.07882135 0.06056002 34.559845 -3.1431355 54.690277 -16.593462 -15.336545 44.916866 1.5554794 -5.9756756 2.5442965 0.00078558165 -0.03803881 0.05318216 -0.016471159 0.13921711 -0.031668283 -0.012084866 0.026847094 -0.11464872 7.7584114 5.444067 0.28945795 0.008747515 -0.085289195 -0.059929986 2.8570356 1.0794548 0.07783927 -0.069806375 0.063944526 -0.106074564 10.228466 0.73728174 -0.022030398 -0.16192874 0.0033817256 0.058850963 2.3256488 -0.5602164 -0.15950161 0.026732143 -0.0913409 0.25271338 89.75052 83.779076 49.343616 28.695442 -39.503468 -83.84225 5.5324354 -34.843506 7.231785 0.04031018 -0.13608499 0.14936188 0.09234348 -0.10365313 0.0289833 0.11395467 0.23417631 0.02428544 -7.709128 5.56115 -0.48917228 -0.10916847 0.15782829 -0.10022194 -3.0037413 0.9444782 -0.24671698 0.042613216 -0.15910761 -0.12855153 -10.245848 0.56544495 -0.10996677 0.054973416 0.13361603 0.042894967 -2.1779356 -0.6554115 0.18722571 0.17829567 -0.04159954 0.13313393 -46.509056 -57.17986 -45.749798 -0.49751356 65.65583 5.6066866 -2.5415325 23.237633 6.9731865 0.21698613 0.04454927 -0.121684805 20.528101 -48.411453 29.456188 -0.5443546 77.992165 -6.3929267 8.834763 -17.606745 22.623337
41.013905 65.65726 -146.98401 -13.952643 51.05716 -16.864414 -1.4629936 13.500499 7.752538 -0.5634154 -12.2099 2.3182805 -7.1888714 16.450003 -8.116716 9.338905 -33.205433 -15.07329 -0.056351393 -0.12956345 -0.08654391 -0.1534988 -0.074607596 -0.13696451 -0.011609084 0.10867432 0.072711535 37.96864 -3.9736888 57.440224 -14.6586 -14.467796 42.558777 -0.40249813 -10.753623 0.46079203 0.007621531 0.062010266 0.028157147 0.047185056 0.11419024 -0.124670535 0.023718115 0.047644153 -0.0378258 7.754473 5.4476933 0.25420523 0.030438842 -0.07636134 0.047144823 2.9127016 1.1401914 0.05423644 -0.08905299 0.03765996 -0.114577614 10.296313 0.70709455 0.04073871 -0.15254039 0.042649608 0.0382605 2.3288202 -0.56193864 -0.12282251 -0.016988898 -0.07630262 0.26045275 25.306929 72.69713 -57.126118 27.60569 -39.14861 -82.27032 3.7315662 -28.704826 5.0276766 -0.0025981527 -0.040669963 0.1265965 -0.044266243 -0.12843569 0.014284236 0.048095316 0.2020965 0.012959356 -7.7200913 5.6510396 -0.4508436 -0.13552341 0.09885381 -0.093911335 -3.0274296 0.9968827 -0.27186194 0.034481905 -0.19415848 -0.14828481 -10.230809 0.5335364 -0.06319883 0.03916234 0.10773221 0.083217695 -2.1679425 -0.6431134 0.17193335 0.15953283 -0.04150075 0.048408177 -49.7131 -57.524773 -44.927658 1.4946923 64.70377 4.642976 -1.487504 25.063477 10.228617 0.19008332 0.05672075 -0.038943842 18.832544 -45.3989 27.566004 -0.70349044 77.04638 -4.851238 10.112239 -17.782343 19.713026
